<svg width="88" height="88" viewBox="0 0 88 88" fill="none" xmlns="http://www.w3.org/2000/svg">
    <g filter="url(#filter0_d_3601_114579)">
        <path d="M16 36C16 20.536 28.536 8 44 8C59.464 8 72 20.536 72 36C72 51.464 59.464 64 44 64C28.536 64 16 51.464 16 36Z" fill="url(#paint0_linear_3601_114579)"/>
        <g clip-path="url(#clip0_3601_114579)">
            <path d="M43.999 20.249C33.9138 20.249 25.7383 27.3012 25.7383 36.0001C25.7383 40.4823 27.9087 44.527 31.3925 47.3952C31.348 48.7628 30.8719 50.1165 30.0393 51.202C31.6534 51.1376 33.2346 50.4926 34.4503 49.4286C37.2287 50.9016 40.4991 51.7512 43.9993 51.7512C54.0845 51.7512 62.2603 44.6991 62.2603 36.0001C62.2603 27.3012 54.0843 20.249 43.999 20.249ZM55.3487 43.6326C54.6757 44.376 53.7167 44.7939 52.7154 44.7939H35.2827C34.2814 44.7939 33.3224 44.376 32.6494 43.6326C30.7438 41.5273 29.6082 38.878 29.6082 35.9999C29.6082 33.1218 30.7436 30.4727 32.6492 28.3674C33.3222 27.6238 34.2811 27.2059 35.2827 27.2059H52.7152C53.729 27.2059 54.6932 27.639 55.3722 28.3932C57.2639 30.4941 58.3899 33.1336 58.3899 35.9996C58.3899 38.8657 57.2543 41.5271 55.3487 43.6323V43.6326Z" fill="white"/>
            <path d="M24.8696 36.0002C24.8696 38.1607 25.3368 40.2558 26.2596 42.2353C23.7942 41.4224 22 39.8137 22 36.0002C22 32.3825 23.7942 30.5777 26.2599 29.765C25.3373 31.7455 24.8696 33.8416 24.8696 36.0002Z" fill="white"/>
            <path d="M24.1302 25.089V29.811C23.4905 30.2251 22.9491 30.7243 22.5116 31.3055C22.5077 31.3109 22.5036 31.3157 22.5 31.321V25.089C22.5 24.6378 22.8649 24.272 23.315 24.272C23.7651 24.272 24.1302 24.6378 24.1302 25.089Z" fill="white"/>
            <path d="M63.1305 36.0002C63.1305 38.1607 62.6633 40.2558 61.7405 42.2353C64.2059 41.4226 66.0001 39.814 66.0001 36.0002C66.0001 32.3825 64.2059 30.5777 61.7402 29.765C62.6628 31.7455 63.1305 33.8416 63.1305 36.0002Z" fill="white"/>
            <path d="M63.8691 25.089V29.811C64.5089 30.2251 65.0502 30.7243 65.4878 31.3055C65.4917 31.3109 65.4958 31.3157 65.4994 31.321V25.089C65.4994 24.6378 65.1345 24.272 64.6844 24.272C64.2343 24.272 63.8691 24.6378 63.8691 25.089Z" fill="white"/>
            <path d="M40.1185 35.5115C39.588 36.3302 38.8226 35.5115 37.2234 35.5115C35.6242 35.5115 34.859 36.3302 34.3285 35.5115C33.8151 34.7188 35.2316 32.7637 37.2234 32.7637C39.2152 32.7637 40.6317 34.7191 40.1185 35.5115Z" fill="white"/>
            <path d="M53.6712 35.5115C53.1407 36.3302 52.3753 35.5115 50.7761 35.5115C49.1769 35.5115 48.4118 36.3302 47.8813 35.5115C47.3679 34.7188 48.7844 32.7637 50.7761 32.7637C52.7679 32.7637 54.1844 34.7191 53.6712 35.5115Z" fill="white"/>
            <path d="M44.0008 39.2363C42.8847 39.2363 42.1484 38.3491 42.1176 38.3114C41.9508 38.1068 41.9808 37.8052 42.185 37.638C42.3891 37.4708 42.6899 37.5009 42.8567 37.7055C42.8599 37.7092 43.3437 38.2791 44.0008 38.2791C44.6579 38.2791 45.1417 37.7092 45.1465 37.7034C45.3133 37.4987 45.6132 37.4696 45.8173 37.6368C46.0214 37.804 46.0508 38.1066 45.8838 38.3112C45.8529 38.3491 45.1166 39.236 44.0005 39.236L44.0008 39.2363Z" fill="white"/>
        </g>
    </g>
    <defs>
        <filter id="filter0_d_3601_114579" x="0" y="0" width="88" height="88" filterUnits="userSpaceOnUse" color-interpolation-filters="sRGB">
            <feFlood flood-opacity="0" result="BackgroundImageFix"/>
            <feColorMatrix in="SourceAlpha" type="matrix" values="0 0 0 0 0 0 0 0 0 0 0 0 0 0 0 0 0 0 127 0" result="hardAlpha"/>
            <feOffset dy="8"/>
            <feGaussianBlur stdDeviation="8"/>
            <feColorMatrix type="matrix" values="0 0 0 0 0.184314 0 0 0 0 0.341176 0 0 0 0 0.937255 0 0 0 0.24 0"/>
            <feBlend mode="normal" in2="BackgroundImageFix" result="effect1_dropShadow_3601_114579"/>
            <feBlend mode="normal" in="SourceGraphic" in2="effect1_dropShadow_3601_114579" result="shape"/>
        </filter>
        <linearGradient id="paint0_linear_3601_114579" x1="-12" y1="36" x2="44" y2="92" gradientUnits="userSpaceOnUse">
            <stop stop-color="#7A9EFC"/>
            <stop offset="1" stop-color="#2F57EF"/>
        </linearGradient>
        <clipPath id="clip0_3601_114579">
            <rect width="44" height="31.5019" fill="white" transform="translate(22 20.249)"/>
        </clipPath>
    </defs>
</svg>
